<svg xmlns="http://www.w3.org/2000/svg" viewBox="0 0 879.15 351">
  <defs>
    <style>
      .bsa-logo-1 {
        fill: #e30613;
      }

      .bsa-logo-2 {
        fill: #ef7900;
      }

      .bsa-logo-3 {
        fill: #fcbf00;
      }

      .bsa-logo-4 {
        fill: #b51f1f;
      }

      .bsa-logo-5 {
        fill: #3c3c3b;
      }
    </style>
  </defs>
  <polygon class="bsa-logo-1" points="4.79 92.51 38.09 194.99 94.02 160.04 94.02 101.13 167.07 101.13 167.07 188.08 211.78 205.24 256.3 109.78 116.73 22.57 4.79 92.51"/>
  <polygon class="bsa-logo-2" points="161.33 106.87 99.76 106.87 99.76 162.24 103.42 163.65 103.42 115.08 148.2 115.08 148.2 180.84 161.33 185.88 161.33 106.87"/>
  <polygon class="bsa-logo-3" points="109.16 120.82 109.16 129.03 131.79 129.03 131.79 174.54 142.46 178.63 142.46 120.82 109.16 120.82"/>
  <polygon class="bsa-logo-4" points="211.78 18.52 186.12 65.93 256.3 109.78 211.78 18.52"/>
  <g>
    <path class="bsa-logo-5" d="M71.68,344.33a65.66,65.66,0,0,1-10-.78,72.26,72.26,0,0,1-10-2.26,65,65,0,0,1-9.33-3.58A42.66,42.66,0,0,1,34.49,333l7.16-11.52q14.94,10.43,29.72,10.43,7.78,0,12.3-3a9.46,9.46,0,0,0,4.51-8.4q0-5.14-5.06-7.55T67,307.91a132.64,132.64,0,0,1-13.07-3.81,37.19,37.19,0,0,1-8.87-4.36,14.62,14.62,0,0,1-5-5.76,18.82,18.82,0,0,1-1.56-8A23.73,23.73,0,0,1,41,274.92a24.53,24.53,0,0,1,6.77-8.17,30,30,0,0,1,10.12-5.06A44.38,44.38,0,0,1,70.44,260a52.83,52.83,0,0,1,17.12,2.8,54,54,0,0,1,14.78,7.62L95,280.83q-11.67-8.71-24.9-8.71a21.07,21.07,0,0,0-11,2.72q-4.52,2.73-4.52,8.64a8.69,8.69,0,0,0,.94,4.2,7.92,7.92,0,0,0,3,3,24.43,24.43,0,0,0,5.53,2.25q3.42,1,8.4,2.26,8.4,2,14.48,4.05a40.08,40.08,0,0,1,10,4.74,17.5,17.5,0,0,1,5.84,6.38,19.09,19.09,0,0,1,1.87,8.8,22.9,22.9,0,0,1-2.34,10.42,22.53,22.53,0,0,1-6.61,7.94,31.49,31.49,0,0,1-10.43,5.06A48.76,48.76,0,0,1,71.68,344.33Z"/>
    <path class="bsa-logo-5" d="M146.54,344.33a42.34,42.34,0,0,1-17.35-3.42,39.93,39.93,0,0,1-21.56-22.65,45.46,45.46,0,0,1,0-32.22,39.79,39.79,0,0,1,8.49-13.46,41.43,41.43,0,0,1,13.23-9.18A42.53,42.53,0,0,1,177,272.58,39.92,39.92,0,0,1,185.45,286a45.32,45.32,0,0,1,0,32.22A39.73,39.73,0,0,1,177,331.72a41.24,41.24,0,0,1-30.43,12.61Zm-24.28-42a30.89,30.89,0,0,0,1.87,10.89,27.19,27.19,0,0,0,5.14,8.64,24,24,0,0,0,7.7,5.76,22.86,22.86,0,0,0,19.14,0,23.52,23.52,0,0,0,7.71-5.84,27.89,27.89,0,0,0,5.13-8.71,32.44,32.44,0,0,0,0-21.71,27.78,27.78,0,0,0-5.13-8.8,23.5,23.5,0,0,0-7.71-5.83,22,22,0,0,0-9.57-2.1,20.94,20.94,0,0,0-9.41,2.18,24.44,24.44,0,0,0-7.71,5.91,29.08,29.08,0,0,0-5.21,8.79A29.85,29.85,0,0,0,122.26,302.31Z"/>
    <path class="bsa-logo-5" d="M217.35,344.33q-12.6,0-19.14-8.33t-6.53-24.82v-49.8h17.11v46.38q0,21.93,15.41,21.94a24.2,24.2,0,0,0,14-4.51,29,29,0,0,0,10.12-13.08V261.38h17.11v61.16a6.41,6.41,0,0,0,1.09,4.2c.73.83,2,1.3,3.89,1.4v14.63c-1.86.31-3.47.52-4.82.62s-2.54.16-3.58.16q-9.64-.78-10.89-8.87l-.32-8.4a36.32,36.32,0,0,1-14.16,13.46A40.76,40.76,0,0,1,217.35,344.33Z"/>
    <path class="bsa-logo-5" d="M320.38,338.57q-3.42,1.56-9.1,3.5A37.94,37.94,0,0,1,298.9,344a25.45,25.45,0,0,1-7.54-1.09,18.93,18.93,0,0,1-6.23-3.27,14.84,14.84,0,0,1-4.28-5.68,20.79,20.79,0,0,1-1.55-8.48V274.61H268.4V261.38h10.9V234.61h17.11v26.77h17.75v13.23H296.41v45.44q0,4.36,2.49,6.3A9.56,9.56,0,0,0,305,328.3a18.87,18.87,0,0,0,6.85-1.25q3.27-1.24,4.83-2Z"/>
    <path class="bsa-logo-5" d="M395.4,342.77H378.28v-45.6q0-11.21-4-16.57t-11.52-5.37a19.23,19.23,0,0,0-7,1.4,25.51,25.51,0,0,0-6.77,4,31.74,31.74,0,0,0-5.76,6.07,24.86,24.86,0,0,0-3.81,7.7v48.4H322.25V229.16h17.12v48.56a34.81,34.81,0,0,1,12.84-13.07A34.09,34.09,0,0,1,369.72,260a25.77,25.77,0,0,1,12.45,2.72,21.81,21.81,0,0,1,7.93,7.24,29.19,29.19,0,0,1,4.13,10.5,66.22,66.22,0,0,1,1.17,12.69Z"/>
  </g>
  <g>
    <path class="bsa-logo-5" d="M424,344.33a28.16,28.16,0,0,1-10.5-1.95,27.53,27.53,0,0,1-8.56-5.29,23.36,23.36,0,0,1-5.68-7.94,24.16,24.16,0,0,1-2-9.88,19,19,0,0,1,2.5-9.65,23.37,23.37,0,0,1,7-7.54,35.6,35.6,0,0,1,10.66-5A48.76,48.76,0,0,1,431,295.3a76.86,76.86,0,0,1,13.23,1.17,65.66,65.66,0,0,1,12,3.19v-7.93q0-11.52-6.54-18.29T432,266.67a35.93,35.93,0,0,0-12.68,2.49A60.91,60.91,0,0,0,406,276.32L402.87,271q15.72-10.59,29.57-10.59,14.63,0,23.11,8.49T464,292.35v39.53q0,3.89,3.27,3.89v7a7.12,7.12,0,0,1-1.48.16H464.5a7.85,7.85,0,0,1-5.14-1.95,6.28,6.28,0,0,1-2.33-5.06v-6.69a36.48,36.48,0,0,1-14.24,11.21A45.2,45.2,0,0,1,424,344.33Zm1.56-6.23a41,41,0,0,0,16.65-3.34,25,25,0,0,0,11.36-9.11,9.61,9.61,0,0,0,2.65-6.22V305.11A69.85,69.85,0,0,0,432,300.75q-12.14,0-19.61,5t-7.47,13.08a18.86,18.86,0,0,0,1.56,7.62,17.77,17.77,0,0,0,4.36,6.15,20.84,20.84,0,0,0,6.61,4.05A22.49,22.49,0,0,0,425.59,338.1Z"/>
    <path class="bsa-logo-5" d="M495.93,344.33q-26,0-26-35.8V261.84h7.78v45.6q0,29.9,20.39,29.89a29.12,29.12,0,0,0,10-1.79,34.64,34.64,0,0,0,16.5-12.69,39.22,39.22,0,0,0,5.05-10V261.84h7.79v70q0,3.89,3.26,3.89v7a9.13,9.13,0,0,1-1.55.16H538a7.58,7.58,0,0,1-5.37-1.95,6.56,6.56,0,0,1-2.1-5.06V323.63a39.77,39.77,0,0,1-14.63,15.25A38.36,38.36,0,0,1,495.93,344.33Z"/>
    <path class="bsa-logo-5" d="M575.77,344.33a52.09,52.09,0,0,1-17.9-3.11,41.39,41.39,0,0,1-14.94-9.34l3.89-5.29a45.55,45.55,0,0,0,13.54,8.71,41.1,41.1,0,0,0,15.41,2.8q10.58,0,17-4.43a14.17,14.17,0,0,0,6.46-12.38,11.51,11.51,0,0,0-1.63-6.3,13.18,13.18,0,0,0-4.91-4.36,40.69,40.69,0,0,0-8.09-3.19q-4.83-1.4-11.2-2.95-6.86-1.56-11.91-3.11a32.24,32.24,0,0,1-8.33-3.74,14.41,14.41,0,0,1-4.9-5.29,17,17,0,0,1-1.63-7.94A22.79,22.79,0,0,1,549,273.83a20.87,20.87,0,0,1,6.46-7.47,29.74,29.74,0,0,1,9.49-4.44,43.2,43.2,0,0,1,11.44-1.48,41.83,41.83,0,0,1,16.81,3.19,29.58,29.58,0,0,1,11.36,8.17L600.2,276a24.7,24.7,0,0,0-10.5-7,40.38,40.38,0,0,0-13.77-2.33,37.13,37.13,0,0,0-8.49.93,20.55,20.55,0,0,0-6.92,3,14.63,14.63,0,0,0-4.67,5.21,15.79,15.79,0,0,0-1.71,7.55,12.3,12.3,0,0,0,1.16,5.76,9.9,9.9,0,0,0,3.74,3.73,27.49,27.49,0,0,0,6.61,2.73q4.05,1.17,9.65,2.57,7.63,1.86,13.54,3.58a39.16,39.16,0,0,1,9.89,4.2,18.59,18.59,0,0,1,6.07,5.91,16.44,16.44,0,0,1,2.1,8.72,20.67,20.67,0,0,1-8.49,17.35Q589.93,344.34,575.77,344.33Z"/>
    <path class="bsa-logo-5" d="M648.76,338.88q-.63.31-2.1,1.17a21,21,0,0,1-3.74,1.63,45.22,45.22,0,0,1-5,1.4,27.72,27.72,0,0,1-6.07.63,19.9,19.9,0,0,1-6.15-.94,14.46,14.46,0,0,1-5.06-2.8,14.27,14.27,0,0,1-3.5-4.51,13.82,13.82,0,0,1-1.32-6.23v-61H604.4v-6.39h11.37v-27.7h7.78v27.7h19v6.39h-19v59.14a7.78,7.78,0,0,0,3.11,6.76,11.83,11.83,0,0,0,7.16,2.26,19.51,19.51,0,0,0,8.32-1.63c2.34-1.09,3.76-1.79,4.28-2.1Z"/>
    <path class="bsa-logo-5" d="M690.93,268.85a31.61,31.61,0,0,0-30.5,23.34v50.58h-7.78V261.84H660v19.92a39.06,39.06,0,0,1,11.13-13.92A28.52,28.52,0,0,1,686,261.69c1,0,2,0,2.8-.08s1.56-.08,2.18-.08Z"/>
    <path class="bsa-logo-5" d="M715.06,344.33a28.17,28.17,0,0,1-10.51-1.95,27.53,27.53,0,0,1-8.56-5.29,23.36,23.36,0,0,1-5.68-7.94,24.15,24.15,0,0,1-2-9.88,19.14,19.14,0,0,1,2.49-9.65,23.37,23.37,0,0,1,7-7.54,35.6,35.6,0,0,1,10.66-5,48.76,48.76,0,0,1,13.62-1.79,76.68,76.68,0,0,1,13.23,1.17,65.66,65.66,0,0,1,12,3.19v-7.93q0-11.52-6.54-18.29T723,266.67a36,36,0,0,0-12.68,2.49A60.91,60.91,0,0,0,697,276.32L693.89,271q15.72-10.59,29.57-10.59,14.63,0,23.11,8.49t8.48,23.42v39.53q0,3.89,3.27,3.89v7a7.12,7.12,0,0,1-1.48.16h-1.32a7.85,7.85,0,0,1-5.14-1.95,6.28,6.28,0,0,1-2.33-5.06v-6.69a36.48,36.48,0,0,1-14.24,11.21A45.19,45.19,0,0,1,715.06,344.33Zm1.55-6.23a41,41,0,0,0,16.65-3.34,25,25,0,0,0,11.37-9.11,9.65,9.65,0,0,0,2.64-6.22V305.11A69.81,69.81,0,0,0,723,300.75q-12.13,0-19.61,5t-7.47,13.08a18.86,18.86,0,0,0,1.56,7.62,17.77,17.77,0,0,0,4.36,6.15,20.84,20.84,0,0,0,6.61,4.05A22.53,22.53,0,0,0,716.61,338.1Z"/>
    <path class="bsa-logo-5" d="M762.36,229.16h7.94v97.58a9.84,9.84,0,0,0,2.57,7.16,9.38,9.38,0,0,0,7.08,2.65,26.55,26.55,0,0,0,4.13-.39,22.24,22.24,0,0,0,4.43-1.17l1.56,6.23a33.36,33.36,0,0,1-6.54,1.79,39.21,39.21,0,0,1-6.69.7,14.24,14.24,0,0,1-10.51-4q-4-4-4-10.66Z"/>
    <path class="bsa-logo-5" d="M793,243.48V229.16h7.79v14.32Zm0,99.29V261.84h7.79v80.93Z"/>
    <path class="bsa-logo-5" d="M832.4,344.33a28.17,28.17,0,0,1-10.51-1.95,27.53,27.53,0,0,1-8.56-5.29,23.36,23.36,0,0,1-5.68-7.94,24.15,24.15,0,0,1-2-9.88,19.14,19.14,0,0,1,2.49-9.65,23.48,23.48,0,0,1,7-7.54,35.6,35.6,0,0,1,10.66-5,48.76,48.76,0,0,1,13.62-1.79,76.68,76.68,0,0,1,13.23,1.17,65.66,65.66,0,0,1,12,3.19v-7.93q0-11.52-6.53-18.29t-17.75-6.77a36,36,0,0,0-12.68,2.49,60.91,60.91,0,0,0-13.31,7.16L811.23,271Q827,260.44,840.8,260.44q14.63,0,23.11,8.49t8.48,23.42v39.53q0,3.89,3.27,3.89v7a7.12,7.12,0,0,1-1.48.16h-1.32a7.8,7.8,0,0,1-5.13-1.95,6.26,6.26,0,0,1-2.34-5.06v-6.69a36.41,36.41,0,0,1-14.24,11.21A45.19,45.19,0,0,1,832.4,344.33ZM834,338.1a41,41,0,0,0,16.66-3.34A25,25,0,0,0,862,325.65a9.65,9.65,0,0,0,2.64-6.22V305.11a69.81,69.81,0,0,0-24.28-4.36q-12.14,0-19.61,5t-7.47,13.08a18.86,18.86,0,0,0,1.56,7.62,17.9,17.9,0,0,0,4.36,6.15,21,21,0,0,0,6.61,4.05A22.53,22.53,0,0,0,834,338.1Z"/>
  </g>
  <g>
    <path class="bsa-logo-1" d="M350.57,199.06a57.6,57.6,0,0,1-30.33-8.44A62.76,62.76,0,0,1,298.36,169v27.42H286.49V3.93h13.19V89.1a87.4,87.4,0,0,1,22.94-23.21q13.19-9,30.59-9a55.31,55.31,0,0,1,26.23,6.2,61.82,61.82,0,0,1,19.78,16.34,76.11,76.11,0,0,1,12.39,23,80.11,80.11,0,0,1,4.35,26,73.47,73.47,0,0,1-5,27,71,71,0,0,1-13.84,22.41,68.39,68.39,0,0,1-20.83,15.43A58.4,58.4,0,0,1,350.57,199.06Zm-2.64-11.87a48.27,48.27,0,0,0,21.89-5,56,56,0,0,0,17.27-13.31A63.35,63.35,0,0,0,398.43,150a59.46,59.46,0,0,0,4.09-21.62,65.6,65.6,0,0,0-3.83-22.28,62.88,62.88,0,0,0-10.68-19,52.59,52.59,0,0,0-16.48-13.31,46.87,46.87,0,0,0-37.71-2,56.58,56.58,0,0,0-14.23,8,62.44,62.44,0,0,0-11.48,11.6,80.06,80.06,0,0,0-8.43,13.71v45.36a29.16,29.16,0,0,0,5.67,14.37,48.67,48.67,0,0,0,12,11.6,65.63,65.63,0,0,0,15.3,7.78A45.69,45.69,0,0,0,347.93,187.19Z"/>
    <path class="bsa-logo-1" d="M491.38,71.17q-18.74.52-32.44,10.94t-19.25,28.61v85.7H426.51V59.3H438.9V93.05a66.3,66.3,0,0,1,18.86-23.6A48.3,48.3,0,0,1,482.94,59c1.75,0,3.34,0,4.74-.13s2.64-.14,3.7-.14Z"/>
    <path class="bsa-logo-1" d="M532.24,199.06a47.72,47.72,0,0,1-17.79-3.3,46.68,46.68,0,0,1-14.51-9,39.64,39.64,0,0,1-9.62-13.45,41,41,0,0,1-3.43-16.75,32.44,32.44,0,0,1,4.22-16.35A39.81,39.81,0,0,1,503,127.47,59.79,59.79,0,0,1,521,119a82.39,82.39,0,0,1,23.07-3,130.08,130.08,0,0,1,22.41,2,110.38,110.38,0,0,1,20.31,5.41V109.93q0-19.52-11.08-31T545.69,67.48A61,61,0,0,0,524.2,71.7a102.46,102.46,0,0,0-22.54,12.13l-5.28-9Q523,56.93,546.48,56.93q24.79,0,39.16,14.37T600,111v67q0,6.6,5.54,6.59v11.87a13.2,13.2,0,0,1-2.5.26H600.8a13.28,13.28,0,0,1-8.7-3.29,10.64,10.64,0,0,1-4-8.57V173.48a61.85,61.85,0,0,1-24.13,19A76.56,76.56,0,0,1,532.24,199.06Zm2.64-10.55a69.47,69.47,0,0,0,28.22-5.67q12.92-5.67,19.25-15.42,4.47-5.28,4.48-10.55V132.61a118.15,118.15,0,0,0-41.14-7.39q-20.57,0-33.22,8.44t-12.66,22.15a32,32,0,0,0,2.64,12.92,30.28,30.28,0,0,0,7.38,10.42A35.11,35.11,0,0,0,521,186,37.71,37.71,0,0,0,534.88,188.51Z"/>
    <path class="bsa-logo-1" d="M731.59,196.42H718.41V120q0-26.62-7.52-38.76T686.76,69.06a49.5,49.5,0,0,0-17.27,3.16,56.47,56.47,0,0,0-15.82,9,67.17,67.17,0,0,0-12.79,13.58,55.85,55.85,0,0,0-8.17,16.74v84.91H619.52V59.3h12.13V92A62.46,62.46,0,0,1,642.2,77.63a70.44,70.44,0,0,1,14-11.08,67.79,67.79,0,0,1,16.49-7.12,66.16,66.16,0,0,1,18.06-2.5q22.41,0,31.64,15.69t9.23,45Z"/>
    <path class="bsa-logo-1" d="M806.48,199.06a59.23,59.23,0,0,1-26.37-5.93,67.52,67.52,0,0,1-21-15.83,72.15,72.15,0,0,1-13.72-22.67,73.8,73.8,0,0,1-4.87-26.5A78.19,78.19,0,0,1,745.3,101a72.45,72.45,0,0,1,13.19-22.68,64.77,64.77,0,0,1,19.9-15.56,55.1,55.1,0,0,1,25.19-5.8,54.27,54.27,0,0,1,17,2.64,63.42,63.42,0,0,1,14.76,7,67.79,67.79,0,0,1,12.26,10.16,70,70,0,0,1,9.5,12.39V3.93h13.18V178q0,6.6,5.54,6.59v11.87a12.68,12.68,0,0,1-2.38.26h-2.1A12.4,12.4,0,0,1,862,193a11.53,11.53,0,0,1-3.56-8.17V169a63.2,63.2,0,0,1-22.54,21.88A57.87,57.87,0,0,1,806.48,199.06Zm2.37-11.87a45.69,45.69,0,0,0,15.29-2.9,60.53,60.53,0,0,0,15.3-8,54.66,54.66,0,0,0,12-11.74,28.55,28.55,0,0,0,5.67-14.23v-45.1a54.29,54.29,0,0,0-8.31-14.1,61.47,61.47,0,0,0-12.26-11.61,62.23,62.23,0,0,0-14.77-7.77,44.17,44.17,0,0,0-15.29-2.91A44.84,44.84,0,0,0,785,73.94a55.81,55.81,0,0,0-16.61,13.45,59.12,59.12,0,0,0-10.68,19,66.71,66.71,0,0,0-3.7,22,59.82,59.82,0,0,0,4.22,22.41A60.48,60.48,0,0,0,770,169.52a56.86,56.86,0,0,0,17.4,12.93A49,49,0,0,0,808.85,187.19Z"/>
  </g>
</svg>
