<?xml version="1.0" encoding="utf-8"?>
<!-- Generator: Adobe Illustrator 14.0.0, SVG Export Plug-In . SVG Version: 6.00 Build 43363)  -->
<!DOCTYPE svg PUBLIC "-//W3C//DTD SVG 1.1//EN" "http://www.w3.org/Graphics/SVG/1.1/DTD/svg11.dtd">
<svg version="1.1" id="Layer_1" xmlns="http://www.w3.org/2000/svg" xmlns:xlink="http://www.w3.org/1999/xlink" x="0px" y="0px"
	 width="600px" height="600px" viewBox="0 0 600 600" enable-background="new 0 0 600 600" xml:space="preserve">
<g>
	<g>
		
			<radialGradient id="SVGID_1_" cx="462.865" cy="-485.1365" r="281.1306" gradientTransform="matrix(0.551 -0.8345 -0.8345 -0.551 -363.6963 412.2702)" gradientUnits="userSpaceOnUse">
			<stop  offset="0.76" style="stop-color:#FDFDFE"/>
			<stop  offset="0.8671" style="stop-color:#FCFCFC"/>
			<stop  offset="0.9057" style="stop-color:#F8F9F5"/>
			<stop  offset="0.9332" style="stop-color:#F2F3EA"/>
			<stop  offset="0.9554" style="stop-color:#E9EBD9"/>
			<stop  offset="0.9744" style="stop-color:#DCE1C3"/>
			<stop  offset="0.991" style="stop-color:#CED5A8"/>
			<stop  offset="1" style="stop-color:#C4CC96"/>
		</radialGradient>
		<circle fill="url(#SVGID_1_)" cx="296.189" cy="293.32" r="281.098"/>
		<circle fill="none" stroke="#8DAF40" stroke-width="6" cx="296.189" cy="293.32" r="281.098"/>
	</g>
</g>
<g>
	<g>
		<g enable-background="new    ">
			<g>
				<polygon fill="#536625" points="145.929,450.063 137.325,446.377 198.754,446.01 207.358,449.693 				"/>
			</g>
			<g>
				<polygon fill="#475820" points="207.358,449.693 198.754,446.01 199.896,217.118 208.5,220.802 				"/>
			</g>
			<g>
				<polygon fill="#536625" points="147.07,221.17 138.466,217.487 199.896,217.118 208.5,220.802 				"/>
			</g>
			<g>
				<polygon fill="#475820" points="145.929,450.063 137.325,446.377 138.466,217.487 147.07,221.17 				"/>
			</g>
			<g>
				<polygon fill="#7D9C39" points="208.5,220.802 207.358,449.693 145.929,450.063 147.07,221.17 				"/>
			</g>
			<g>
				<polygon fill="#475820" points="142.95,453.597 134.346,449.911 135.522,213.987 144.127,217.671 				"/>
			</g>
			<g>
				<polygon fill="#536625" points="144.127,217.671 135.522,213.987 202.865,213.583 211.47,217.267 				"/>
			</g>
			<g>
				<path fill="#7D9C39" d="M144.127,217.671l67.346-0.404l-1.18,235.927l-67.343,0.403L144.127,217.671z M207.358,449.693
					l1.142-228.89l-61.43,0.368l-1.142,228.893L207.358,449.693"/>
			</g>
		</g>
	</g>
</g>
<g>
	<g>
		<g enable-background="new    ">
			<g>
				<polygon fill="#536625" points="312.322,450.426 303.718,447.241 365.148,446.927 373.752,450.111 				"/>
			</g>
			<g>
				<polygon fill="#475820" points="373.752,450.111 365.148,446.927 366.863,149.743 375.467,152.926 				"/>
			</g>
			<g>
				<polygon fill="#536625" points="314.037,153.244 305.433,150.062 366.863,149.743 375.467,152.926 				"/>
			</g>
			<g>
				<polygon fill="#475820" points="312.322,450.426 303.718,447.241 305.433,150.062 314.037,153.244 				"/>
			</g>
			<g>
				<path fill="#7D9C39" d="M311.094,150.212l67.344-0.351l-1.75,303.271l-67.344,0.348L311.094,150.212z M373.752,450.111
					l1.715-297.184l-61.43,0.318l-1.715,297.183L373.752,450.111"/>
			</g>
			<g>
				<polygon fill="#7D9C39" points="375.467,152.926 373.752,450.111 312.322,450.426 314.037,153.244 				"/>
			</g>
			<g>
				<polygon fill="#475820" points="309.344,453.484 300.74,450.299 302.489,147.028 311.094,150.212 				"/>
			</g>
			<g>
				<polygon fill="#536625" points="311.094,150.212 302.489,147.028 369.832,146.679 378.437,149.863 				"/>
			</g>
		</g>
	</g>
</g>
<g>
	<g>
		<g enable-background="new    ">
			<g>
				<polygon fill="#536625" points="230.371,450.399 221.767,447.144 283.197,446.818 291.801,450.073 				"/>
			</g>
			<g>
				<polygon fill="#475820" points="291.801,450.073 283.197,446.818 284.708,178.924 293.313,182.18 				"/>
			</g>
			<g>
				<polygon fill="#536625" points="231.882,182.505 223.278,179.248 284.708,178.924 293.313,182.18 				"/>
			</g>
			<g>
				<polygon fill="#475820" points="230.371,450.399 221.767,447.144 223.278,179.248 231.882,182.505 				"/>
			</g>
			<g>
				<polygon fill="#7D9C39" points="293.313,182.18 291.801,450.073 230.371,450.399 231.882,182.505 				"/>
			</g>
			<g>
				<polygon fill="#475820" points="227.401,453.523 218.797,450.267 220.343,176.147 228.948,179.404 				"/>
			</g>
			<g>
				<polygon fill="#536625" points="228.948,179.404 220.343,176.147 287.687,175.791 296.291,179.046 				"/>
			</g>
			<g>
				<path fill="#7D9C39" d="M228.948,179.404l67.343-0.354l-1.547,274.12l-67.343,0.354L228.948,179.404z M291.801,450.073
					l1.515-267.895l-61.433,0.326L230.371,450.4L291.801,450.073"/>
			</g>
		</g>
	</g>
</g>
<g>
	<g>
		<g enable-background="new    ">
			<g>
				<polygon fill="#536625" points="396.171,450.365 387.566,447.165 448.996,446.85 457.6,450.049 				"/>
			</g>
			<g>
				<polygon fill="#475820" points="457.6,450.049 448.996,446.85 450.937,108.951 459.541,112.152 				"/>
			</g>
			<g>
				<polygon fill="#536625" points="398.111,112.47 389.507,109.271 450.937,108.951 459.541,112.152 				"/>
			</g>
			<g>
				<polygon fill="#475820" points="396.171,450.365 387.566,447.165 389.507,109.271 398.111,112.47 				"/>
			</g>
			<g>
				<polygon fill="#7D9C39" points="459.541,112.152 457.6,450.049 396.171,450.365 398.111,112.47 				"/>
			</g>
			<g>
				<polygon fill="#475820" points="393.201,453.439 384.597,450.239 386.572,106.233 395.176,109.432 				"/>
			</g>
			<g>
				<polygon fill="#536625" points="395.176,109.432 386.572,106.233 453.915,105.882 462.519,109.082 				"/>
			</g>
			<g>
				<path fill="#7D9C39" d="M395.176,109.432l67.347-0.35l-1.977,344.005l-67.345,0.352L395.176,109.432z M457.6,450.049
					l1.938-337.897l-61.43,0.319l-1.94,337.896L457.6,450.049"/>
			</g>
		</g>
	</g>
</g>
<g>
	
		<image overflow="visible" opacity="0.99" enable-background="new    " width="33" height="75" xlink:href="B1792C3A.png"  transform="matrix(1 0 0 1 412.9988 373.0002)">
	</image>
	<g>
		<text transform="matrix(0.6559 0 0 1 419.4705 424.0706)" fill="#BCC1A3" font-family="'Calibri'" font-size="54.888">B</text>
	</g>
</g>
<g>
	
		<image overflow="visible" opacity="0.99" enable-background="new    " width="34" height="75" xlink:href="B1792C3E.png"  transform="matrix(1 0 0 1 327.9998 373.0002)">
	</image>
	<g>
		<text transform="matrix(0.6559 0 0 1 334.7839 424.2268)" fill="#BCC1A3" font-family="'Calibri'" font-size="54.888">A</text>
	</g>
</g>
<g>
	
		<image overflow="visible" opacity="0.99" enable-background="new    " width="31" height="75" xlink:href="B1792C39.png"  transform="matrix(1 0 0 1 160.9993 373.0002)">
	</image>
	<g>
		<g>
			<g>
				<text transform="matrix(0.6559 0 0 1 167.1575 424.0706)" fill="#BCC1A3" font-family="'Calibri'" font-size="54.888">P</text>
			</g>
		</g>
	</g>
</g>
<g>
	
		<image overflow="visible" opacity="0.99" enable-background="new    " width="33" height="75" xlink:href="B1792C3B.png"  transform="matrix(1 0 0 1 245.9993 373.0002)">
	</image>
	<g>
		<text transform="matrix(0.6559 0 0 1 252.843 424.0706)" fill="#BCC1A3" font-family="'Calibri'" font-size="54.888">B</text>
	</g>
</g>
<g>
	
		<image overflow="visible" opacity="0.99" enable-background="new    " width="495" height="226" xlink:href="B1792C38.png"  transform="matrix(1 0 0 1 50.9993 151.0007)">
	</image>
	<g>
		<g>
			<g>
				<g>
					<g>
						<path fill="#71943A" d="M473.823,179.674c12.992,2.576,23.946,4.593,35.136,7.189c2.752,0.686,5.627,1.431,8.063,2.611
							c0.601,0.302,1.146,0.625,1.5,0.938c0.326-0.614,0.476,2.928-1.518-4.325c0.291-11.031,1.459-7.382,0.901-8.146
							c-0.281,0.29-0.856,0.79-1.42,1.272c-5.226,3.968-12.129,7.493-19.541,11.354c-32.271,19.105-199.688,79.011-199.66,78.601
							c0.064-0.072-167.456,59.486-200.682,64.095c-7.105,1.482-15.646,2.828-18.63,2.107c0.049,0.209,0.691,0.146,1.698,3.418
							c1.188,5.137-0.013,8.719-0.295,9.275c-0.506,1.043,0.003-0.115,0.344-0.596c0.897-1.369,2.127-2.895,3.35-4.311
							c2.486-2.855,5.075-5.59,7.643-8.271c10.297-10.783,20.376-20.959,31.787-34.963c-12.764,7.152-23.538,11.768-34.842,19.182
							c-2.833,1.861-5.694,3.879-8.701,6.42c-1.513,1.313-3.038,2.689-4.784,4.791c-0.941,1.344-1.782,1.992-3.28,5.604
							c-0.689,1.852-2.348,7.104-0.724,13.711c1.437,4.582,2.809,5.286,3.588,6.059c9.552,4.514,15.142,1.705,23.509,0.857
							c34.385-4.492,201.552-64.399,201.597-64.348c0.049,0.365,167.344-59.032,200.596-79.005
							c7.759-4.21,14.449-7.959,21.232-14.343c0.903-0.956,1.786-1.862,2.854-3.338c0.506-0.678,1.229-1.854,1.916-3.298
							c0.506-1.176,0.952-2.517,1.297-3.862c0.522-2.452,0.728-5.881,0.358-8.159c-2.575-10.225-4.133-7.57-5.159-9.173
							c-1.089-0.575-2.018-0.84-2.895-1.045c-3.465-0.727-6.446-0.529-9.448-0.268C497.741,171.02,486.838,174.793,473.823,179.674z
							"/>
					</g>
				</g>
			</g>
		</g>
	</g>
</g>
<path fill="#72775D" d="M-49.5,387.5"/>
</svg>
